<svg xmlns="http://www.w3.org/2000/svg" viewBox="0 0 1200 500"><defs><linearGradient id="b" x1="0" y1="0" x2="1" y2="1"><stop stop-color="#075a99"/><stop offset="1" stop-color="#0b86c9"/></linearGradient><linearGradient id="g" x1="0" y1="0" x2="1" y2="1"><stop stop-color="#36a66b"/><stop offset="1" stop-color="#1d9a5a"/></linearGradient></defs><g transform="translate(40 55)"><path fill="url(#b)" d="M180 35l75-27 10 57c25 7 48 18 69 32l48-31 49 66-46 35c7 25 10 50 9 76l54 20-28 77-58-13c-14 21-32 40-52 55l18 56-78 30-26-53c-26 4-52 4-78 0l-28 52-77-31 19-55c-20-15-38-33-52-54l-59 14-27-78 54-20c-2-26 1-52 8-77L17 126l50-65 47 31c21-14 45-25 70-32z"/><circle cx="240" cy="245" r="139" fill="white"/><path fill="url(#g)" d="M157 121h117l70 70v169H157z"/><path fill="white" d="M274 121v70h70z"/><path fill="none" stroke="url(#g)" stroke-width="28" stroke-linecap="round" stroke-linejoin="round" d="M202 269l39 39 70-79"/></g><text x="470" y="255" font-family="Arial,Helvetica,sans-serif" font-size="190" font-weight="800" fill="url(#b)">Cota</text><text x="470" y="420" font-family="Arial,Helvetica,sans-serif" font-size="190" font-weight="800" fill="url(#g)">Fácil</text><text x="474" y="474" font-family="Arial,Helvetica,sans-serif" font-size="38" letter-spacing="2" fill="#8c8c8c">SISTEMA DE COTAÇÃO DE PEÇAS</text></svg>